Coordinates
version=1
nRows=15
nColumns=34
inDegrees=no

Units are S.I. units (second, meters, Newtons, ...)
If the header above contains a line with 'inDegrees', this indicates whether rotational values are in degrees (yes) or radians (no).

endheader
time	pelvis_tilt	pelvis_list	pelvis_rotation	pelvis_tx	pelvis_ty	pelvis_tz	hip_flexion_r	hip_adduction_r	hip_rotation_r	knee_angle_r	ankle_angle_r	subtalar_angle_r	mtp_angle_r	hip_flexion_l	hip_adduction_l	hip_rotation_l	knee_angle_l	ankle_angle_l	subtalar_angle_l	mtp_angle_l	lumbar_extension	lumbar_bending	lumbar_rotation	arm_flex_r	arm_add_r	arm_rot_r	elbow_flex_r	pro_sup_r	arm_flex_l	arm_add_l	arm_rot_l	elbow_flex_l	pro_sup_l
0.91	0.172222	-0.0176129	0.000878038	0.993576	1.09218	-0.276774	0.265332	-0.0804565	-0.305743	0.73563	0.057353	0.0120678	-0.0221153	-0.142489	-0.0887517	-0.457913	0.217957	0.234509	0.47971	-0.017275	-0.553891	-0.270981	-0.0781493	-0.159927	-0.121706	-0.161536	0.737891	2.03191	0.0947399	-0.280146	-0.428353	0.839621	1.67173
0.92	0.172711	-0.0165682	-0.00081464	1.00436	1.09195	-0.278824	0.266045	-0.0776128	-0.309737	0.679427	0.0631149	0.0389743	-0.0221751	-0.164015	-0.0799219	-0.455728	0.199251	0.237505	0.479719	-0.0172026	-0.553274	-0.261983	-0.0841226	-0.161493	-0.119608	-0.16633	0.719234	2.02359	0.107154	-0.292462	-0.419661	0.855029	1.67174
0.93	0.173425	-0.0147731	-0.00261051	1.01523	1.09136	-0.280818	0.264956	-0.0749156	-0.313272	0.620734	0.0679964	0.0674706	-0.022235	-0.185694	-0.0700182	-0.4512	0.180709	0.241112	0.476182	-0.0171303	-0.552725	-0.253811	-0.0898434	-0.162975	-0.117674	-0.171638	0.700644	2.01496	0.119819	-0.305216	-0.410499	0.869048	1.67327
0.94	0.174403	-0.0123306	-0.00454714	1.0262	1.09042	-0.28275	0.262094	-0.0722141	-0.31601	0.559882	0.0716194	0.0967437	-0.0222948	-0.207483	-0.0592366	-0.444436	0.162599	0.245476	0.469032	-0.0170579	-0.55223	-0.246378	-0.0951613	-0.164444	-0.115923	-0.177461	0.682275	2.00642	0.132786	-0.318305	-0.400781	0.881535	1.67646
0.95	0.175679	-0.00938788	-0.00666663	1.03727	1.08914	-0.284608	0.257524	-0.069339	-0.317476	0.497332	0.0737343	0.125915	-0.0223546	-0.229269	-0.0478792	-0.435798	0.145353	0.250785	0.458547	-0.0169856	-0.551781	-0.239565	-0.0999197	-0.165958	-0.114366	-0.183781	0.664287	1.99836	0.1461	-0.331617	-0.390462	0.892384	1.68121
0.96	0.177286	-0.00612271	-0.00901022	1.04845	1.08754	-0.286379	0.251363	-0.0661397	-0.317087	0.433735	0.0742845	0.15409	-0.0224144	-0.250863	-0.0363291	-0.425906	0.129552	0.257263	0.445376	-0.0169132	-0.551389	-0.233245	-0.103975	-0.167548	-0.113012	-0.190551	0.646822	1.99113	0.159789	-0.345044	-0.379539	0.901543	1.68727
0.97	0.179253	-0.002727	-0.0116107	1.05974	1.08566	-0.288041	0.243796	-0.0625263	-0.314237	0.369987	0.0734561	0.180419	-0.0224742	-0.272022	-0.0250115	-0.415608	0.115886	0.265149	0.430521	-0.0168408	-0.551081	-0.227301	-0.107218	-0.169211	-0.111856	-0.197678	0.629979	1.98501	0.17386	-0.358485	-0.368063	0.909031	1.6942
0.98	0.181603	0.000611962	-0.0144874	1.07112	1.08353	-0.289573	0.235092	-0.0585042	-0.308417	0.307272	0.0716994	0.204165	-0.022534	-0.292474	-0.0143525	-0.405902	0.105078	0.274664	0.41525	-0.0167685	-0.550903	-0.221651	-0.109591	-0.170905	-0.110882	-0.205021	0.613795	1.98013	0.188281	-0.371849	-0.356127	0.914942	1.70152
0.99	0.184352	0.00374387	-0.0176422	1.08259	1.08121	-0.290947	0.225615	-0.0541829	-0.299369	0.24707	0.0696987	0.224776	-0.0225937	-0.311955	-0.00474705	-0.397825	0.0977891	0.285954	0.400949	-0.0166961	-0.550916	-0.216235	-0.111098	-0.17255	-0.110067	-0.212385	0.598246	1.97652	0.202979	-0.385062	-0.343871	0.919441	1.70877
1	0.187505	0.00655657	-0.0210535	1.09415	1.07873	-0.292138	0.215818	-0.0497535	-0.287211	0.191093	0.0682758	0.241942	-0.0226535	-0.330249	0.00346367	-0.392315	0.0945201	0.299038	0.388951	-0.0166237	-0.551174	-0.211008	-0.1118	-0.174034	-0.109384	-0.219534	0.583253	1.97407	0.21783	-0.398058	-0.331474	0.922749	1.71556
1.01	0.191054	0.00894893	-0.0246711	1.10577	1.07616	-0.293126	0.206207	-0.0454356	-0.272488	0.141132	0.06822	0.255606	-0.0227133	-0.347219	0.00999821	-0.390093	0.0955337	0.313766	0.380354	-0.0165513	-0.551718	-0.205918	-0.111803	-0.175225	-0.108813	-0.226207	0.568705	1.97259	0.232659	-0.410771	-0.319154	0.925121	1.72164
1.02	0.194965	0.010804	-0.0284155	1.11747	1.07357	-0.293902	0.197267	-0.0413945	-0.256119	0.0988074	0.0700617	0.265897	-0.022773	-0.362822	0.0146216	-0.391579	0.100813	0.329791	0.375896	-0.0164789	-0.552551	-0.200878	-0.111235	-0.17599	-0.108339	-0.232146	0.554485	1.97185	0.247238	-0.423127	-0.307166	0.926816	1.7269
1.03	0.199171	0.0119748	-0.0321792	1.12924	1.071	-0.294467	0.189365	-0.0376583	-0.239208	0.0652681	0.0738406	0.272999	-0.0228328	-0.377105	0.0171238	-0.396874	0.110069	0.346593	0.375907	-0.0164065	-0.553624	-0.195741	-0.110225	-0.176215	-0.107959	-0.237124	0.540506	1.97163	0.261297	-0.435031	-0.295797	0.928078	1.7314
1.04	0.203572	0.012283	-0.0358296	1.14111	1.06852	-0.294829	0.182648	-0.0340694	-0.222793	0.0409234	0.0789433	0.276992	-0.0228925	-0.390184	0.0173064	-0.405793	0.122801	0.363524	0.380341	-0.0163341	-0.554831	-0.190298	-0.108892	-0.175831	-0.107671	-0.240988	0.526736	1.97174	0.274524	-0.446364	-0.285353	0.929114	1.73532
1.05	0.208021	0.0115271	-0.0392135	1.15312	1.06619	-0.294996	0.176988	-0.0302962	-0.207607	0.0253218	0.0840914	0.27775	-0.0229523	-0.402205	0.0149927	-0.417917	0.138376	0.379872	0.388831	-0.0162616	-0.556012	-0.184299	-0.107337	-0.17483	-0.107473	-0.24368	0.513222	1.97208	0.286582	-0.456986	-0.276147	0.930092	1.73894
